<svg width="65" height="19" viewBox="0 0 65 19" fill="none" xmlns="http://www.w3.org/2000/svg">
<path d="M0.378906 14.3906C0.378906 14.1875 0.386719 14.0078 0.402344 13.8516C0.433594 13.6953 0.574219 13.5781 0.824219 13.5C1.08984 13.6094 1.28516 13.7812 1.41016 14.0156C1.53516 14.2344 1.63672 14.4844 1.71484 14.7656C1.80859 15.0469 1.88672 15.3359 1.94922 15.6328C2.02734 15.9297 2.13672 16.1953 2.27734 16.4297C2.41797 16.6641 2.62109 16.8516 2.88672 16.9922C3.15234 17.1172 3.51172 17.1562 3.96484 17.1094C4.77734 17.0312 5.46484 16.8906 6.02734 16.6875C6.58984 16.4688 7.05078 16.2031 7.41016 15.8906C7.78516 15.5781 8.07422 15.2109 8.27734 14.7891C8.49609 14.3672 8.65234 13.8984 8.74609 13.3828C8.85547 12.8672 8.91797 12.3125 8.93359 11.7188C8.96484 11.1094 8.98047 10.4609 8.98047 9.77344C8.98047 9.07031 8.92578 8.375 8.81641 7.6875C8.72266 7 8.61328 6.32031 8.48828 5.64844C8.37891 4.96094 8.26953 4.28125 8.16016 3.60938C8.06641 2.92188 8.01953 2.23438 8.01953 1.54688C8.01953 1.46875 8.01953 1.40625 8.01953 1.35938C8.03516 1.29688 8.07422 1.25781 8.13672 1.24219C8.21484 1.21094 8.30859 1.20312 8.41797 1.21875C8.54297 1.23438 8.71484 1.28125 8.93359 1.35938C8.94922 1.375 8.98047 1.48438 9.02734 1.6875C9.08984 1.875 9.15234 2.11719 9.21484 2.41406C9.27734 2.71094 9.33984 3.03906 9.40234 3.39844C9.46484 3.75781 9.51953 4.11719 9.56641 4.47656C9.62891 4.83594 9.68359 5.17969 9.73047 5.50781C9.77734 5.82031 9.80859 6.08594 9.82422 6.30469C9.88672 7.24219 9.96484 8.19531 10.0586 9.16406C10.1523 10.1328 10.1914 11.0703 10.1758 11.9766C10.1602 12.8828 10.0586 13.7266 9.87109 14.5078C9.69922 15.2734 9.37891 15.9375 8.91016 16.5C8.44141 17.0469 7.79297 17.4688 6.96484 17.7656C6.13672 18.0469 5.07422 18.1406 3.77734 18.0469C3.30859 18.0469 2.86328 17.9453 2.44141 17.7422C2.03516 17.5234 1.67578 17.2422 1.36328 16.8984C1.06641 16.5547 0.824219 16.1641 0.636719 15.7266C0.464844 15.2891 0.378906 14.8438 0.378906 14.3906ZM10.9492 14.3906C10.9492 14.1875 10.957 14.0078 10.9727 13.8516C11.0039 13.6953 11.1445 13.5781 11.3945 13.5C11.6602 13.6094 11.8555 13.7812 11.9805 14.0156C12.1055 14.2344 12.207 14.4844 12.2852 14.7656C12.3789 15.0469 12.457 15.3359 12.5195 15.6328C12.5977 15.9297 12.707 16.1953 12.8477 16.4297C12.9883 16.6641 13.1914 16.8516 13.457 16.9922C13.7227 17.1172 14.082 17.1562 14.5352 17.1094C15.3477 17.0312 16.0352 16.8906 16.5977 16.6875C17.1602 16.4688 17.6211 16.2031 17.9805 15.8906C18.3555 15.5781 18.6445 15.2109 18.8477 14.7891C19.0664 14.3672 19.2227 13.8984 19.3164 13.3828C19.4258 12.8672 19.4883 12.3125 19.5039 11.7188C19.5352 11.1094 19.5508 10.4609 19.5508 9.77344C19.5508 9.07031 19.4961 8.375 19.3867 7.6875C19.293 7 19.1836 6.32031 19.0586 5.64844C18.9492 4.96094 18.8398 4.28125 18.7305 3.60938C18.6367 2.92188 18.5898 2.23438 18.5898 1.54688C18.5898 1.46875 18.5898 1.40625 18.5898 1.35938C18.6055 1.29688 18.6445 1.25781 18.707 1.24219C18.7852 1.21094 18.8789 1.20312 18.9883 1.21875C19.1133 1.23438 19.2852 1.28125 19.5039 1.35938C19.5195 1.375 19.5508 1.48438 19.5977 1.6875C19.6602 1.875 19.7227 2.11719 19.7852 2.41406C19.8477 2.71094 19.9102 3.03906 19.9727 3.39844C20.0352 3.75781 20.0898 4.11719 20.1367 4.47656C20.1992 4.83594 20.2539 5.17969 20.3008 5.50781C20.3477 5.82031 20.3789 6.08594 20.3945 6.30469C20.457 7.24219 20.5352 8.19531 20.6289 9.16406C20.7227 10.1328 20.7617 11.0703 20.7461 11.9766C20.7305 12.8828 20.6289 13.7266 20.4414 14.5078C20.2695 15.2734 19.9492 15.9375 19.4805 16.5C19.0117 17.0469 18.3633 17.4688 17.5352 17.7656C16.707 18.0469 15.6445 18.1406 14.3477 18.0469C13.8789 18.0469 13.4336 17.9453 13.0117 17.7422C12.6055 17.5234 12.2461 17.2422 11.9336 16.8984C11.6367 16.5547 11.3945 16.1641 11.207 15.7266C11.0352 15.2891 10.9492 14.8438 10.9492 14.3906ZM21.6836 12.4922C21.6836 12.0234 21.7852 11.5078 21.9883 10.9453C22.1914 10.3672 22.4648 9.83594 22.8086 9.35156C23.168 8.85156 23.5664 8.4375 24.0039 8.10938C24.457 7.76562 24.9258 7.59375 25.4102 7.59375C25.6758 7.59375 25.9336 7.64844 26.1836 7.75781C26.4492 7.86719 26.6992 8.01562 26.9336 8.20312C27.1836 8.375 27.4023 8.57812 27.5898 8.8125C27.793 9.03125 27.9492 9.26562 28.0586 9.51562C28.168 9.76562 28.2227 10.0078 28.2227 10.2422C28.2383 10.4766 28.1758 10.6797 28.0352 10.8516L23.0898 11.7656C23.0273 11.7812 22.9727 11.8594 22.9258 12C22.8789 12.125 22.8398 12.2891 22.8086 12.4922C22.7773 12.6953 22.7461 12.9219 22.7148 13.1719C22.6992 13.4062 22.6836 13.6406 22.668 13.875C22.6523 14.0938 22.6445 14.2969 22.6445 14.4844C22.6445 14.6562 22.6445 14.7891 22.6445 14.8828C22.6445 15.3203 22.7461 15.6797 22.9492 15.9609C23.168 16.2266 23.4414 16.4297 23.7695 16.5703C24.0977 16.7109 24.4648 16.8047 24.8711 16.8516C25.293 16.8984 25.707 16.9219 26.1133 16.9219C26.5195 16.9219 26.9023 16.9062 27.2617 16.875C27.6211 16.8438 27.918 16.8281 28.1523 16.8281C28.1523 16.8906 28.1289 16.9609 28.082 17.0391C28.0352 17.1172 27.9805 17.1953 27.918 17.2734C27.8555 17.3359 27.793 17.3984 27.7305 17.4609C27.668 17.5078 27.6289 17.5391 27.6133 17.5547C27.4883 17.5859 27.293 17.6328 27.0273 17.6953C26.7773 17.7422 26.5039 17.7891 26.207 17.8359C25.9258 17.8828 25.6602 17.9219 25.4102 17.9531C25.1602 17.9844 24.9883 18 24.8945 18C24.4102 18.0938 23.9883 18.0859 23.6289 17.9766C23.2695 17.8672 22.9648 17.6797 22.7148 17.4141C22.4648 17.1484 22.2617 16.8281 22.1055 16.4531C21.9492 16.0625 21.832 15.6484 21.7539 15.2109C21.6758 14.7734 21.6289 14.3203 21.6133 13.8516C21.6133 13.3828 21.6367 12.9297 21.6836 12.4922ZM25.082 8.48438C24.9414 8.48438 24.7539 8.5625 24.5195 8.71875C24.3008 8.85938 24.0898 9.04688 23.8867 9.28125C23.6992 9.5 23.5352 9.74219 23.3945 10.0078C23.2695 10.2578 23.2305 10.4766 23.2773 10.6641C23.6836 10.7109 24.1055 10.7031 24.543 10.6406C24.9805 10.5781 25.3789 10.4844 25.7383 10.3594C26.0977 10.2188 26.3945 10.0625 26.6289 9.89062C26.8633 9.70312 26.9727 9.51562 26.957 9.32812C26.957 9.14062 26.8086 8.97656 26.5117 8.83594C26.2305 8.67969 25.7539 8.5625 25.082 8.48438ZM29.7695 17.8828C29.7383 17.6328 29.707 17.2734 29.6758 16.8047C29.6602 16.3203 29.6367 15.7812 29.6055 15.1875C29.5898 14.5781 29.5742 13.9453 29.5586 13.2891C29.543 12.6328 29.5273 12.0078 29.5117 11.4141C29.4961 10.8203 29.4727 10.2891 29.4414 9.82031C29.4258 9.33594 29.3945 8.96875 29.3477 8.71875C29.3477 8.70312 29.3398 8.66406 29.3242 8.60156C29.3242 8.53906 29.3164 8.46875 29.3008 8.39062C29.3008 8.3125 29.3008 8.25 29.3008 8.20312C29.3008 8.14062 29.3008 8.09375 29.3008 8.0625C29.5352 7.875 29.7305 7.8125 29.8867 7.875C30.0586 7.9375 30.1992 8.07812 30.3086 8.29688C30.418 8.5 30.4961 8.75781 30.543 9.07031C30.5898 9.38281 30.6211 9.69531 30.6367 10.0078C30.668 10.3203 30.6836 10.6094 30.6836 10.875C30.6836 11.125 30.6836 11.3047 30.6836 11.4141C30.7148 11.1484 30.7617 10.8359 30.8242 10.4766C30.8867 10.1172 30.9805 9.75 31.1055 9.375C31.2305 9 31.3789 8.63281 31.5508 8.27344C31.7383 7.89844 31.9648 7.57031 32.2305 7.28906C32.4961 7.00781 32.793 6.78906 33.1211 6.63281C33.4648 6.47656 33.8555 6.41406 34.293 6.44531C34.9805 6.47656 35.543 6.66406 35.9805 7.00781C36.4336 7.35156 36.7852 7.8125 37.0352 8.39062C37.3008 8.96875 37.4883 9.63281 37.5977 10.3828C37.7227 11.1328 37.8008 11.9297 37.832 12.7734C37.8789 13.6172 37.8945 14.4766 37.8789 15.3516C37.8633 16.2109 37.8555 17.0391 37.8555 17.8359C37.7148 17.8672 37.5742 17.9219 37.4336 18C37.293 18.0625 37.1758 18.0859 37.082 18.0703C36.9883 18.0703 36.918 18.0078 36.8711 17.8828C36.8398 17.7422 36.8555 17.4766 36.918 17.0859C36.9336 16.8047 36.957 16.375 36.9883 15.7969C37.0352 15.2031 37.0508 14.5469 37.0352 13.8281C37.0352 13.1094 36.9961 12.3672 36.918 11.6016C36.8398 10.8359 36.6914 10.1406 36.4727 9.51562C36.2695 8.875 35.9727 8.35938 35.582 7.96875C35.1914 7.5625 34.6836 7.35938 34.0586 7.35938C33.418 7.625 32.8789 8.125 32.4414 8.85938C32.0195 9.59375 31.6758 10.4531 31.4102 11.4375C31.1602 12.4219 30.9727 13.4922 30.8477 14.6484C30.7383 15.7891 30.6758 16.9062 30.6602 18C30.6289 17.9844 30.5664 17.9766 30.4727 17.9766C30.3945 17.9766 30.3008 17.9766 30.1914 17.9766C30.0977 17.9609 30.0039 17.9453 29.9102 17.9297C29.832 17.9141 29.7852 17.8984 29.7695 17.8828ZM39.7773 17.3672C39.7617 17.0391 39.7227 16.5391 39.6602 15.8672C39.6133 15.1797 39.5586 14.4141 39.4961 13.5703C39.4336 12.7109 39.3711 11.8047 39.3086 10.8516C39.2461 9.89844 39.1836 9 39.1211 8.15625C39.0742 7.29688 39.0273 6.53125 38.9805 5.85938C38.9336 5.17188 38.9023 4.66406 38.8867 4.33594C38.8711 4.19531 38.8555 3.95312 38.8398 3.60938C38.8398 3.25 38.832 2.875 38.8164 2.48438C38.8008 2.07812 38.7852 1.70312 38.7695 1.35938C38.7695 1 38.7695 0.75 38.7695 0.609375C38.9883 0.609375 39.1836 0.65625 39.3555 0.75C39.5273 0.828125 39.668 0.96875 39.7773 1.17188C39.8086 1.5 39.8398 1.96875 39.8711 2.57812C39.918 3.17188 39.9648 3.85938 40.0117 4.64062C40.0586 5.42188 40.1055 6.25781 40.1523 7.14844C40.2148 8.03906 40.2695 8.92188 40.3164 9.79688C40.3633 9.71875 40.4102 9.64844 40.457 9.58594C40.5039 9.52344 40.5352 9.48438 40.5508 9.46875C40.7227 9.28125 40.9258 9.0625 41.1602 8.8125C41.3945 8.5625 41.6367 8.30469 41.8867 8.03906C42.1523 7.77344 42.4102 7.51562 42.6602 7.26562C42.9258 7 43.1602 6.76562 43.3633 6.5625C43.582 6.34375 43.7617 6.17188 43.9023 6.04688C44.043 5.92188 44.1289 5.85938 44.1602 5.85938L45.0508 6.30469C44.7852 6.53906 44.4805 6.8125 44.1367 7.125C43.793 7.4375 43.457 7.77344 43.1289 8.13281C42.8008 8.47656 42.4805 8.84375 42.168 9.23438C41.8711 9.60938 41.6289 9.98438 41.4414 10.3594C41.4414 10.375 41.4336 10.4141 41.418 10.4766C41.418 10.5234 41.418 10.5625 41.418 10.5938C41.418 10.6094 41.418 10.6484 41.418 10.7109C41.4336 10.7578 41.4414 10.7891 41.4414 10.8047L46.8555 17.1094C46.8555 17.125 46.8555 17.1562 46.8555 17.2031C46.8711 17.25 46.8789 17.2891 46.8789 17.3203C46.8789 17.6172 46.7227 17.8438 46.4102 18L40.5508 11.25C40.5352 11.2344 40.5117 11.2109 40.4805 11.1797C40.4648 11.1328 40.4414 11.0859 40.4102 11.0391L40.668 15.5859C40.668 15.6641 40.668 15.8125 40.668 16.0312C40.6836 16.25 40.6914 16.4922 40.6914 16.7578C40.707 17.0078 40.7148 17.25 40.7148 17.4844C40.7305 17.7031 40.7383 17.8516 40.7383 17.9297C40.5352 17.9297 40.3477 17.8906 40.1758 17.8125C40.0039 17.7188 39.8711 17.5703 39.7773 17.3672ZM49.7383 15.2344C49.7383 14.8906 49.7852 14.5625 49.8789 14.25C49.9883 13.9219 50.0977 13.6094 50.207 13.3125C50.332 13.0156 50.4414 12.7188 50.5352 12.4219C50.6445 12.125 50.6992 11.8047 50.6992 11.4609C50.6992 11.4453 50.6914 11.4141 50.6758 11.3672C50.6758 11.3203 50.6758 11.2812 50.6758 11.25C50.5977 11.1875 50.4102 11.0391 50.1133 10.8047C49.8164 10.5547 49.5117 10.2656 49.1992 9.9375C48.8867 9.60938 48.6055 9.26562 48.3555 8.90625C48.1055 8.53125 47.9805 8.19531 47.9805 7.89844C47.9805 7.38281 48.082 6.9375 48.2852 6.5625C48.5039 6.1875 48.7852 5.875 49.1289 5.625C49.4883 5.375 49.8789 5.19531 50.3008 5.08594C50.7383 4.96094 51.1836 4.89844 51.6367 4.89844C51.7773 4.89844 51.9648 4.92969 52.1992 4.99219C52.4336 5.03906 52.6836 5.11719 52.9492 5.22656C53.2148 5.33594 53.4727 5.46875 53.7227 5.625C53.9883 5.76562 54.2148 5.92188 54.4023 6.09375C54.5898 6.26562 54.7148 6.45312 54.7773 6.65625C54.8555 6.84375 54.8398 7.03125 54.7305 7.21875L52.9258 10.3594C52.9258 10.3594 53.0039 10.4219 53.1602 10.5469C53.3164 10.6719 53.5117 10.8359 53.7461 11.0391C53.9805 11.2266 54.2383 11.4453 54.5195 11.6953C54.8008 11.9297 55.0586 12.1719 55.293 12.4219C55.5273 12.6562 55.7227 12.8906 55.8789 13.125C56.0508 13.3438 56.1367 13.5234 56.1367 13.6641C56.1367 14.2422 55.9961 14.7969 55.7148 15.3281C55.4492 15.8594 55.0977 16.3281 54.6602 16.7344C54.2383 17.1406 53.7539 17.4609 53.207 17.6953C52.6758 17.9297 52.1289 18.0469 51.5664 18.0469C51.1445 18.0469 50.8086 17.9688 50.5586 17.8125C50.3242 17.6562 50.1445 17.4531 50.0195 17.2031C49.8945 16.9375 49.8164 16.6406 49.7852 16.3125C49.7539 15.9688 49.7383 15.6094 49.7383 15.2344ZM50.6523 15.2344C50.6523 15.5625 50.6523 15.8438 50.6523 16.0781C50.6523 16.3125 50.6836 16.5078 50.7461 16.6641C50.8242 16.8203 50.9414 16.9375 51.0977 17.0156C51.2695 17.0938 51.5195 17.1328 51.8477 17.1328C52.1758 17.1328 52.5352 17.0391 52.9258 16.8516C53.332 16.6641 53.6992 16.4141 54.0273 16.1016C54.3555 15.7891 54.6367 15.4453 54.8711 15.0703C55.1055 14.6953 55.2227 14.3281 55.2227 13.9688C55.2227 13.625 55.1523 13.3125 55.0117 13.0312C54.8711 12.75 54.6836 12.5078 54.4492 12.3047C54.2148 12.1016 53.9414 11.9453 53.6289 11.8359C53.332 11.7266 53.0195 11.6719 52.6914 11.6719C52.2695 11.6719 51.9258 11.7969 51.6602 12.0469C51.3945 12.2812 51.1836 12.5781 51.0273 12.9375C50.8867 13.2969 50.7852 13.6875 50.7227 14.1094C50.6758 14.5156 50.6523 14.8906 50.6523 15.2344ZM48.8711 7.92188C48.8711 8.10938 48.957 8.32031 49.1289 8.55469C49.3164 8.78906 49.5352 9.00781 49.7852 9.21094C50.0508 9.39844 50.3242 9.5625 50.6055 9.70312C50.9023 9.84375 51.1523 9.91406 51.3555 9.91406C51.6055 9.91406 51.8555 9.78906 52.1055 9.53906C52.3555 9.28906 52.5742 9 52.7617 8.67188C52.9492 8.32812 53.1055 7.99219 53.2305 7.66406C53.3555 7.33594 53.418 7.10156 53.418 6.96094C53.418 6.67969 53.3398 6.46094 53.1836 6.30469C53.043 6.14844 52.8633 6.03125 52.6445 5.95312C52.4414 5.875 52.2227 5.82812 51.9883 5.8125C51.7539 5.79688 51.543 5.78906 51.3555 5.78906C51.0742 5.78906 50.7773 5.83594 50.4648 5.92969C50.168 6.00781 49.9023 6.14062 49.668 6.32812C49.4336 6.5 49.2383 6.71875 49.082 6.98438C48.9414 7.25 48.8711 7.5625 48.8711 7.92188ZM62.3711 10.3594C62.0742 10.6562 61.793 10.8984 61.5273 11.0859C61.2773 11.2734 61.0195 11.4219 60.7539 11.5312C60.5039 11.625 60.2383 11.6953 59.957 11.7422C59.6758 11.7734 59.3555 11.7891 58.9961 11.7891C58.7148 11.7891 58.4492 11.7656 58.1992 11.7188C57.9648 11.6719 57.7461 11.5938 57.543 11.4844C57.3555 11.3594 57.207 11.1953 57.0977 10.9922C56.9883 10.7734 56.9336 10.5078 56.9336 10.1953C56.9336 9.66406 57.0195 9.16406 57.1914 8.69531C57.3633 8.22656 57.6055 7.8125 57.918 7.45312C58.2461 7.07812 58.6289 6.78906 59.0664 6.58594C59.5195 6.36719 60.0195 6.25781 60.5664 6.25781C60.7695 6.25781 61.0508 6.28125 61.4102 6.32812C61.7695 6.35938 62.1211 6.42969 62.4648 6.53906C62.8086 6.64844 63.1055 6.78906 63.3555 6.96094C63.6211 7.13281 63.7383 7.35938 63.707 7.64062C63.8164 9.14062 63.918 10.6719 64.0117 12.2344C64.1211 13.7812 64.1758 15.3203 64.1758 16.8516C64.1758 16.8984 64.1758 16.9844 64.1758 17.1094C64.1758 17.2188 64.1758 17.3359 64.1758 17.4609C64.1758 17.5703 64.1758 17.6797 64.1758 17.7891C64.1758 17.8984 64.1758 17.9688 64.1758 18C63.8008 18.125 63.5273 18.0703 63.3555 17.8359C63.1992 17.5859 63.0977 17.2344 63.0508 16.7812C63.0195 16.3281 63.0195 15.8047 63.0508 15.2109C63.082 14.6016 63.0898 14 63.0742 13.4062C63.0586 12.7969 63.0039 12.2266 62.9102 11.6953C62.832 11.1484 62.6523 10.7031 62.3711 10.3594ZM57.8477 10.1484C57.8477 10.3047 57.8867 10.4297 57.9648 10.5234C58.043 10.6172 58.1367 10.6875 58.2461 10.7344C58.3711 10.7812 58.4961 10.8125 58.6211 10.8281C58.7617 10.8281 58.8945 10.8281 59.0195 10.8281C59.3164 10.8281 59.582 10.8047 59.8164 10.7578C60.0508 10.7109 60.2695 10.6406 60.4727 10.5469C60.6914 10.4375 60.918 10.2969 61.1523 10.125C61.3867 9.9375 61.6445 9.71875 61.9258 9.46875C61.9258 9.42188 61.9258 9.36719 61.9258 9.30469C61.9258 9.24219 61.9258 9.17969 61.9258 9.11719C61.9414 9.03906 61.9492 8.96875 61.9492 8.90625C61.9648 8.84375 61.9727 8.79688 61.9727 8.76562C61.9727 8.25 61.8242 7.85156 61.5273 7.57031C61.2305 7.28906 60.832 7.14844 60.332 7.14844C59.9727 7.14844 59.6367 7.24219 59.3242 7.42969C59.0273 7.61719 58.7695 7.85938 58.5508 8.15625C58.332 8.4375 58.1602 8.75781 58.0352 9.11719C57.9102 9.47656 57.8477 9.82031 57.8477 10.1484Z" fill="#000D00"/>
</svg>
