<svg width="171" height="48" viewBox="0 0 171 48" fill="none" xmlns="http://www.w3.org/2000/svg">
<path d="M0.34375 37.375C0.34375 36.8333 0.364583 36.3542 0.40625 35.9375C0.489583 35.5208 0.864583 35.2083 1.53125 35C2.23958 35.2917 2.76042 35.75 3.09375 36.375C3.42708 36.9583 3.69792 37.625 3.90625 38.375C4.15625 39.125 4.36458 39.8958 4.53125 40.6875C4.73958 41.4792 5.03125 42.1875 5.40625 42.8125C5.78125 43.4375 6.32292 43.9375 7.03125 44.3125C7.73958 44.6458 8.69792 44.75 9.90625 44.625C12.0729 44.4167 13.9062 44.0417 15.4062 43.5C16.9062 42.9167 18.1354 42.2083 19.0938 41.375C20.0938 40.5417 20.8646 39.5625 21.4062 38.4375C21.9896 37.3125 22.4062 36.0625 22.6562 34.6875C22.9479 33.3125 23.1146 31.8333 23.1562 30.25C23.2396 28.625 23.2812 26.8958 23.2812 25.0625C23.2812 23.1875 23.1354 21.3333 22.8438 19.5C22.5938 17.6667 22.3021 15.8542 21.9688 14.0625C21.6771 12.2292 21.3854 10.4167 21.0938 8.625C20.8438 6.79167 20.7188 4.95833 20.7188 3.125C20.7188 2.91667 20.7188 2.75 20.7188 2.625C20.7604 2.45833 20.8646 2.35417 21.0312 2.3125C21.2396 2.22917 21.4896 2.20833 21.7812 2.25C22.1146 2.29167 22.5729 2.41667 23.1562 2.625C23.1979 2.66667 23.2812 2.95833 23.4062 3.5C23.5729 4 23.7396 4.64583 23.9062 5.4375C24.0729 6.22917 24.2396 7.10417 24.4062 8.0625C24.5729 9.02083 24.7188 9.97917 24.8438 10.9375C25.0104 11.8958 25.1562 12.8125 25.2812 13.6875C25.4062 14.5208 25.4896 15.2292 25.5312 15.8125C25.6979 18.3125 25.9062 20.8542 26.1562 23.4375C26.4062 26.0208 26.5104 28.5208 26.4688 30.9375C26.4271 33.3542 26.1562 35.6042 25.6562 37.6875C25.1979 39.7292 24.3438 41.5 23.0938 43C21.8438 44.4583 20.1146 45.5833 17.9062 46.375C15.6979 47.125 12.8646 47.375 9.40625 47.125C8.15625 47.125 6.96875 46.8542 5.84375 46.3125C4.76042 45.7292 3.80208 44.9792 2.96875 44.0625C2.17708 43.1458 1.53125 42.1042 1.03125 40.9375C0.572917 39.7708 0.34375 38.5833 0.34375 37.375ZM28.5312 37.375C28.5312 36.8333 28.5521 36.3542 28.5938 35.9375C28.6771 35.5208 29.0521 35.2083 29.7188 35C30.4271 35.2917 30.9479 35.75 31.2812 36.375C31.6146 36.9583 31.8854 37.625 32.0938 38.375C32.3438 39.125 32.5521 39.8958 32.7188 40.6875C32.9271 41.4792 33.2188 42.1875 33.5938 42.8125C33.9688 43.4375 34.5104 43.9375 35.2188 44.3125C35.9271 44.6458 36.8854 44.75 38.0938 44.625C40.2604 44.4167 42.0938 44.0417 43.5938 43.5C45.0938 42.9167 46.3229 42.2083 47.2812 41.375C48.2812 40.5417 49.0521 39.5625 49.5938 38.4375C50.1771 37.3125 50.5938 36.0625 50.8438 34.6875C51.1354 33.3125 51.3021 31.8333 51.3438 30.25C51.4271 28.625 51.4688 26.8958 51.4688 25.0625C51.4688 23.1875 51.3229 21.3333 51.0312 19.5C50.7812 17.6667 50.4896 15.8542 50.1562 14.0625C49.8646 12.2292 49.5729 10.4167 49.2812 8.625C49.0312 6.79167 48.9062 4.95833 48.9062 3.125C48.9062 2.91667 48.9062 2.75 48.9062 2.625C48.9479 2.45833 49.0521 2.35417 49.2188 2.3125C49.4271 2.22917 49.6771 2.20833 49.9688 2.25C50.3021 2.29167 50.7604 2.41667 51.3438 2.625C51.3854 2.66667 51.4688 2.95833 51.5938 3.5C51.7604 4 51.9271 4.64583 52.0938 5.4375C52.2604 6.22917 52.4271 7.10417 52.5938 8.0625C52.7604 9.02083 52.9062 9.97917 53.0312 10.9375C53.1979 11.8958 53.3438 12.8125 53.4688 13.6875C53.5938 14.5208 53.6771 15.2292 53.7188 15.8125C53.8854 18.3125 54.0938 20.8542 54.3438 23.4375C54.5938 26.0208 54.6979 28.5208 54.6562 30.9375C54.6146 33.3542 54.3438 35.6042 53.8438 37.6875C53.3854 39.7292 52.5312 41.5 51.2812 43C50.0312 44.4583 48.3021 45.5833 46.0938 46.375C43.8854 47.125 41.0521 47.375 37.5938 47.125C36.3438 47.125 35.1562 46.8542 34.0312 46.3125C32.9479 45.7292 31.9896 44.9792 31.1562 44.0625C30.3646 43.1458 29.7188 42.1042 29.2188 40.9375C28.7604 39.7708 28.5312 38.5833 28.5312 37.375ZM57.1562 32.3125C57.1562 31.0625 57.4271 29.6875 57.9688 28.1875C58.5104 26.6458 59.2396 25.2292 60.1562 23.9375C61.1146 22.6042 62.1771 21.5 63.3438 20.625C64.5521 19.7083 65.8021 19.25 67.0938 19.25C67.8021 19.25 68.4896 19.3958 69.1562 19.6875C69.8646 19.9792 70.5312 20.375 71.1562 20.875C71.8229 21.3333 72.4062 21.875 72.9062 22.5C73.4479 23.0833 73.8646 23.7083 74.1562 24.375C74.4479 25.0417 74.5938 25.6875 74.5938 26.3125C74.6354 26.9375 74.4688 27.4792 74.0938 27.9375L60.9062 30.375C60.7396 30.4167 60.5938 30.625 60.4688 31C60.3438 31.3333 60.2396 31.7708 60.1562 32.3125C60.0729 32.8542 59.9896 33.4583 59.9062 34.125C59.8646 34.75 59.8229 35.375 59.7812 36C59.7396 36.5833 59.7188 37.125 59.7188 37.625C59.7188 38.0833 59.7188 38.4375 59.7188 38.6875C59.7188 39.8542 59.9896 40.8125 60.5312 41.5625C61.1146 42.2708 61.8438 42.8125 62.7188 43.1875C63.5938 43.5625 64.5729 43.8125 65.6562 43.9375C66.7812 44.0625 67.8854 44.125 68.9688 44.125C70.0521 44.125 71.0729 44.0833 72.0312 44C72.9896 43.9167 73.7812 43.875 74.4062 43.875C74.4062 44.0417 74.3438 44.2292 74.2188 44.4375C74.0938 44.6458 73.9479 44.8542 73.7812 45.0625C73.6146 45.2292 73.4479 45.3958 73.2812 45.5625C73.1146 45.6875 73.0104 45.7708 72.9688 45.8125C72.6354 45.8958 72.1146 46.0208 71.4062 46.1875C70.7396 46.3125 70.0104 46.4375 69.2188 46.5625C68.4688 46.6875 67.7604 46.7917 67.0938 46.875C66.4271 46.9583 65.9688 47 65.7188 47C64.4271 47.25 63.3021 47.2292 62.3438 46.9375C61.3854 46.6458 60.5729 46.1458 59.9062 45.4375C59.2396 44.7292 58.6979 43.875 58.2812 42.875C57.8646 41.8333 57.5521 40.7292 57.3438 39.5625C57.1354 38.3958 57.0104 37.1875 56.9688 35.9375C56.9688 34.6875 57.0312 33.4792 57.1562 32.3125ZM66.2188 21.625C65.8438 21.625 65.3438 21.8333 64.7188 22.25C64.1354 22.625 63.5729 23.125 63.0312 23.75C62.5312 24.3333 62.0938 24.9792 61.7188 25.6875C61.3854 26.3542 61.2812 26.9375 61.4062 27.4375C62.4896 27.5625 63.6146 27.5417 64.7812 27.375C65.9479 27.2083 67.0104 26.9583 67.9688 26.625C68.9271 26.25 69.7188 25.8333 70.3438 25.375C70.9688 24.875 71.2604 24.375 71.2188 23.875C71.2188 23.375 70.8229 22.9375 70.0312 22.5625C69.2812 22.1458 68.0104 21.8333 66.2188 21.625ZM78.7188 46.6875C78.6354 46.0208 78.5521 45.0625 78.4688 43.8125C78.4271 42.5208 78.3646 41.0833 78.2812 39.5C78.2396 37.875 78.1979 36.1875 78.1562 34.4375C78.1146 32.6875 78.0729 31.0208 78.0312 29.4375C77.9896 27.8542 77.9271 26.4375 77.8438 25.1875C77.8021 23.8958 77.7188 22.9167 77.5938 22.25C77.5938 22.2083 77.5729 22.1042 77.5312 21.9375C77.5312 21.7708 77.5104 21.5833 77.4688 21.375C77.4688 21.1667 77.4688 21 77.4688 20.875C77.4688 20.7083 77.4688 20.5833 77.4688 20.5C78.0938 20 78.6146 19.8333 79.0312 20C79.4896 20.1667 79.8646 20.5417 80.1562 21.125C80.4479 21.6667 80.6562 22.3542 80.7812 23.1875C80.9062 24.0208 80.9896 24.8542 81.0312 25.6875C81.1146 26.5208 81.1562 27.2917 81.1562 28C81.1562 28.6667 81.1562 29.1458 81.1562 29.4375C81.2396 28.7292 81.3646 27.8958 81.5312 26.9375C81.6979 25.9792 81.9479 25 82.2812 24C82.6146 23 83.0104 22.0208 83.4688 21.0625C83.9688 20.0625 84.5729 19.1875 85.2812 18.4375C85.9896 17.6875 86.7812 17.1042 87.6562 16.6875C88.5729 16.2708 89.6146 16.1042 90.7812 16.1875C92.6146 16.2708 94.1146 16.7708 95.2812 17.6875C96.4896 18.6042 97.4271 19.8333 98.0938 21.375C98.8021 22.9167 99.3021 24.6875 99.5938 26.6875C99.9271 28.6875 100.135 30.8125 100.219 33.0625C100.344 35.3125 100.385 37.6042 100.344 39.9375C100.302 42.2292 100.281 44.4375 100.281 46.5625C99.9062 46.6458 99.5312 46.7917 99.1562 47C98.7812 47.1667 98.4688 47.2292 98.2188 47.1875C97.9688 47.1875 97.7812 47.0208 97.6562 46.6875C97.5729 46.3125 97.6146 45.6042 97.7812 44.5625C97.8229 43.8125 97.8854 42.6667 97.9688 41.125C98.0938 39.5417 98.1354 37.7917 98.0938 35.875C98.0938 33.9583 97.9896 31.9792 97.7812 29.9375C97.5729 27.8958 97.1771 26.0417 96.5938 24.375C96.0521 22.6667 95.2604 21.2917 94.2188 20.25C93.1771 19.1667 91.8229 18.625 90.1562 18.625C88.4479 19.3333 87.0104 20.6667 85.8438 22.625C84.7188 24.5833 83.8021 26.875 83.0938 29.5C82.4271 32.125 81.9271 34.9792 81.5938 38.0625C81.3021 41.1042 81.1354 44.0833 81.0938 47C81.0104 46.9583 80.8438 46.9375 80.5938 46.9375C80.3854 46.9375 80.1354 46.9375 79.8438 46.9375C79.5938 46.8958 79.3438 46.8542 79.0938 46.8125C78.8854 46.7708 78.7604 46.7292 78.7188 46.6875ZM105.406 45.3125C105.365 44.4375 105.26 43.1042 105.094 41.3125C104.969 39.4792 104.823 37.4375 104.656 35.1875C104.49 32.8958 104.323 30.4792 104.156 27.9375C103.99 25.3958 103.823 23 103.656 20.75C103.531 18.4583 103.406 16.4167 103.281 14.625C103.156 12.7917 103.073 11.4375 103.031 10.5625C102.99 10.1875 102.948 9.54167 102.906 8.625C102.906 7.66667 102.885 6.66667 102.844 5.625C102.802 4.54167 102.76 3.54167 102.719 2.625C102.719 1.66667 102.719 1 102.719 0.625C103.302 0.625 103.823 0.75 104.281 1C104.74 1.20833 105.115 1.58333 105.406 2.125C105.49 3 105.573 4.25 105.656 5.875C105.781 7.45833 105.906 9.29167 106.031 11.375C106.156 13.4583 106.281 15.6875 106.406 18.0625C106.573 20.4375 106.719 22.7917 106.844 25.125C106.969 24.9167 107.094 24.7292 107.219 24.5625C107.344 24.3958 107.427 24.2917 107.469 24.25C107.927 23.75 108.469 23.1667 109.094 22.5C109.719 21.8333 110.365 21.1458 111.031 20.4375C111.74 19.7292 112.427 19.0417 113.094 18.375C113.802 17.6667 114.427 17.0417 114.969 16.5C115.552 15.9167 116.031 15.4583 116.406 15.125C116.781 14.7917 117.01 14.625 117.094 14.625L119.469 15.8125C118.76 16.4375 117.948 17.1667 117.031 18C116.115 18.8333 115.219 19.7292 114.344 20.6875C113.469 21.6042 112.615 22.5833 111.781 23.625C110.99 24.625 110.344 25.625 109.844 26.625C109.844 26.6667 109.823 26.7708 109.781 26.9375C109.781 27.0625 109.781 27.1667 109.781 27.25C109.781 27.2917 109.781 27.3958 109.781 27.5625C109.823 27.6875 109.844 27.7708 109.844 27.8125L124.281 44.625C124.281 44.6667 124.281 44.75 124.281 44.875C124.323 45 124.344 45.1042 124.344 45.1875C124.344 45.9792 123.927 46.5833 123.094 47L107.469 29C107.427 28.9583 107.365 28.8958 107.281 28.8125C107.24 28.6875 107.177 28.5625 107.094 28.4375L107.781 40.5625C107.781 40.7708 107.781 41.1667 107.781 41.75C107.823 42.3333 107.844 42.9792 107.844 43.6875C107.885 44.3542 107.906 45 107.906 45.625C107.948 46.2083 107.969 46.6042 107.969 46.8125C107.427 46.8125 106.927 46.7083 106.469 46.5C106.01 46.25 105.656 45.8542 105.406 45.3125ZM131.969 39.625C131.969 38.7083 132.094 37.8333 132.344 37C132.635 36.125 132.927 35.2917 133.219 34.5C133.552 33.7083 133.844 32.9167 134.094 32.125C134.385 31.3333 134.531 30.4792 134.531 29.5625C134.531 29.5208 134.51 29.4375 134.469 29.3125C134.469 29.1875 134.469 29.0833 134.469 29C134.26 28.8333 133.76 28.4375 132.969 27.8125C132.177 27.1458 131.365 26.375 130.531 25.5C129.698 24.625 128.948 23.7083 128.281 22.75C127.615 21.75 127.281 20.8542 127.281 20.0625C127.281 18.6875 127.552 17.5 128.094 16.5C128.677 15.5 129.427 14.6667 130.344 14C131.302 13.3333 132.344 12.8542 133.469 12.5625C134.635 12.2292 135.823 12.0625 137.031 12.0625C137.406 12.0625 137.906 12.1458 138.531 12.3125C139.156 12.4375 139.823 12.6458 140.531 12.9375C141.24 13.2292 141.927 13.5833 142.594 14C143.302 14.375 143.906 14.7917 144.406 15.25C144.906 15.7083 145.24 16.2083 145.406 16.75C145.615 17.25 145.573 17.75 145.281 18.25L140.469 26.625C140.469 26.625 140.677 26.7917 141.094 27.125C141.51 27.4583 142.031 27.8958 142.656 28.4375C143.281 28.9375 143.969 29.5208 144.719 30.1875C145.469 30.8125 146.156 31.4583 146.781 32.125C147.406 32.75 147.927 33.375 148.344 34C148.802 34.5833 149.031 35.0625 149.031 35.4375C149.031 36.9792 148.656 38.4583 147.906 39.875C147.198 41.2917 146.26 42.5417 145.094 43.625C143.969 44.7083 142.677 45.5625 141.219 46.1875C139.802 46.8125 138.344 47.125 136.844 47.125C135.719 47.125 134.823 46.9167 134.156 46.5C133.531 46.0833 133.052 45.5417 132.719 44.875C132.385 44.1667 132.177 43.375 132.094 42.5C132.01 41.5833 131.969 40.625 131.969 39.625ZM134.406 39.625C134.406 40.5 134.406 41.25 134.406 41.875C134.406 42.5 134.49 43.0208 134.656 43.4375C134.865 43.8542 135.177 44.1667 135.594 44.375C136.052 44.5833 136.719 44.6875 137.594 44.6875C138.469 44.6875 139.427 44.4375 140.469 43.9375C141.552 43.4375 142.531 42.7708 143.406 41.9375C144.281 41.1042 145.031 40.1875 145.656 39.1875C146.281 38.1875 146.594 37.2083 146.594 36.25C146.594 35.3333 146.406 34.5 146.031 33.75C145.656 33 145.156 32.3542 144.531 31.8125C143.906 31.2708 143.177 30.8542 142.344 30.5625C141.552 30.2708 140.719 30.125 139.844 30.125C138.719 30.125 137.802 30.4583 137.094 31.125C136.385 31.75 135.823 32.5417 135.406 33.5C135.031 34.4583 134.76 35.5 134.594 36.625C134.469 37.7083 134.406 38.7083 134.406 39.625ZM129.656 20.125C129.656 20.625 129.885 21.1875 130.344 21.8125C130.844 22.4375 131.427 23.0208 132.094 23.5625C132.802 24.0625 133.531 24.5 134.281 24.875C135.073 25.25 135.74 25.4375 136.281 25.4375C136.948 25.4375 137.615 25.1042 138.281 24.4375C138.948 23.7708 139.531 23 140.031 22.125C140.531 21.2083 140.948 20.3125 141.281 19.4375C141.615 18.5625 141.781 17.9375 141.781 17.5625C141.781 16.8125 141.573 16.2292 141.156 15.8125C140.781 15.3958 140.302 15.0833 139.719 14.875C139.177 14.6667 138.594 14.5417 137.969 14.5C137.344 14.4583 136.781 14.4375 136.281 14.4375C135.531 14.4375 134.74 14.5625 133.906 14.8125C133.115 15.0208 132.406 15.375 131.781 15.875C131.156 16.3333 130.635 16.9167 130.219 17.625C129.844 18.3333 129.656 19.1667 129.656 20.125ZM165.656 26.625C164.865 27.4167 164.115 28.0625 163.406 28.5625C162.74 29.0625 162.052 29.4583 161.344 29.75C160.677 30 159.969 30.1875 159.219 30.3125C158.469 30.3958 157.615 30.4375 156.656 30.4375C155.906 30.4375 155.198 30.375 154.531 30.25C153.906 30.125 153.323 29.9167 152.781 29.625C152.281 29.2917 151.885 28.8542 151.594 28.3125C151.302 27.7292 151.156 27.0208 151.156 26.1875C151.156 24.7708 151.385 23.4375 151.844 22.1875C152.302 20.9375 152.948 19.8333 153.781 18.875C154.656 17.875 155.677 17.1042 156.844 16.5625C158.052 15.9792 159.385 15.6875 160.844 15.6875C161.385 15.6875 162.135 15.75 163.094 15.875C164.052 15.9583 164.99 16.1458 165.906 16.4375C166.823 16.7292 167.615 17.1042 168.281 17.5625C168.99 18.0208 169.302 18.625 169.219 19.375C169.51 23.375 169.781 27.4583 170.031 31.625C170.323 35.75 170.469 39.8542 170.469 43.9375C170.469 44.0625 170.469 44.2917 170.469 44.625C170.469 44.9167 170.469 45.2292 170.469 45.5625C170.469 45.8542 170.469 46.1458 170.469 46.4375C170.469 46.7292 170.469 46.9167 170.469 47C169.469 47.3333 168.74 47.1875 168.281 46.5625C167.865 45.8958 167.594 44.9583 167.469 43.75C167.385 42.5417 167.385 41.1458 167.469 39.5625C167.552 37.9375 167.573 36.3333 167.531 34.75C167.49 33.125 167.344 31.6042 167.094 30.1875C166.885 28.7292 166.406 27.5417 165.656 26.625ZM153.594 26.0625C153.594 26.4792 153.698 26.8125 153.906 27.0625C154.115 27.3125 154.365 27.5 154.656 27.625C154.99 27.75 155.323 27.8333 155.656 27.875C156.031 27.875 156.385 27.875 156.719 27.875C157.51 27.875 158.219 27.8125 158.844 27.6875C159.469 27.5625 160.052 27.375 160.594 27.125C161.177 26.8333 161.781 26.4583 162.406 26C163.031 25.5 163.719 24.9167 164.469 24.25C164.469 24.125 164.469 23.9792 164.469 23.8125C164.469 23.6458 164.469 23.4792 164.469 23.3125C164.51 23.1042 164.531 22.9167 164.531 22.75C164.573 22.5833 164.594 22.4583 164.594 22.375C164.594 21 164.198 19.9375 163.406 19.1875C162.615 18.4375 161.552 18.0625 160.219 18.0625C159.26 18.0625 158.365 18.3125 157.531 18.8125C156.74 19.3125 156.052 19.9583 155.469 20.75C154.885 21.5 154.427 22.3542 154.094 23.3125C153.76 24.2708 153.594 25.1875 153.594 26.0625Z" fill="white"/>
</svg>
