<svg width="64" height="64" viewBox="0 0 64 64" fill="none" xmlns="http://www.w3.org/2000/svg">
<g clip-path="url(#clip0_76_6)">
<rect width="64" height="64" fill="black"/>
<path d="M26.346 15.304V38.248C26.346 41.8 25.338 44.536 23.322 46.456C21.338 48.376 18.65 49.336 15.258 49.336C11.706 49.336 8.858 48.328 6.714 46.312C4.57 44.296 3.498 41.432 3.498 37.72H11.658C11.658 39.128 11.946 40.2 12.522 40.936C13.098 41.64 13.93 41.992 15.018 41.992C16.01 41.992 16.778 41.672 17.322 41.032C17.866 40.392 18.138 39.464 18.138 38.248V15.304H26.346ZM54.096 15.304V38.248C54.096 41.8 53.088 44.536 51.072 46.456C49.088 48.376 46.4 49.336 43.008 49.336C39.456 49.336 36.608 48.328 34.464 46.312C32.32 44.296 31.248 41.432 31.248 37.72H39.408C39.408 39.128 39.696 40.2 40.272 40.936C40.848 41.64 41.68 41.992 42.768 41.992C43.76 41.992 44.528 41.672 45.072 41.032C45.616 40.392 45.888 39.464 45.888 38.248V15.304H54.096Z" fill="#F8A910"/>
</g>
<defs>
<clipPath id="clip0_76_6">
<rect width="64" height="64" fill="white"/>
</clipPath>
</defs>
</svg>
